# Blender v2.93.2 OBJ File: ''
# www.blender.org
mtllib 42.mtl
o 42
v 0.232406 -0.745504 1.552311
v -0.227475 -0.745504 0.186945
v 0.232406 -0.745504 0.186945
v 0.232407 1.119982 -0.156967
v -0.227475 1.119982 0.312027
v 0.232406 1.119982 0.312028
v -0.227403 1.104268 -0.882285
v -0.227403 0.507336 -0.389309
v -0.227403 1.119377 -0.389309
v -0.227475 -0.340316 1.552312
v 0.232406 -0.340316 1.552312
v -0.227475 -0.294496 1.007151
v -0.227475 -0.305193 -0.156968
v 0.232406 -1.216630 -0.156968
v 0.232407 -0.305193 -0.156967
v -0.227475 -0.745504 1.552311
v -0.227475 1.119982 -0.156968
v 0.232407 -0.294496 1.007151
v -0.227475 -1.222569 0.206408
v -0.227475 -1.216630 -0.156968
v 0.232406 -1.222569 0.206409
v 0.223704 -0.075523 -1.328406
v -0.227403 -0.731178 -1.328406
v -0.227403 -0.075523 -1.328406
v 0.223704 0.634134 -1.328406
v 0.223704 1.104269 -0.882285
v 0.223704 0.551492 -0.906299
v -0.227403 -0.129772 -0.389309
v 0.223704 -0.731178 -0.389309
v 0.223704 -0.129772 -0.389309
v -0.227403 -0.731178 -0.389309
v 0.223704 1.119377 -1.328406
v 0.223704 1.119377 -0.389309
v 0.223704 0.507336 -0.389309
v -0.227403 0.551492 -0.906299
v -0.227403 0.634134 -1.328406
v -0.227403 1.119377 -1.328406
v -0.227403 -0.066768 -0.892211
v 0.223704 -0.066768 -0.892211
v -0.227403 -0.684649 -0.901105
v 0.223704 -0.684649 -0.901105
v 0.223704 -0.731178 -1.328406
vt 0.963910 0.393841
vt 0.861732 0.211404
vt 0.963910 0.211404
vt 0.759553 0.000000
vt 0.861732 0.063476
vt 0.759553 0.063476
vt 0.318185 0.523837
vt 0.208653 0.656466
vt 0.208653 0.520480
vt 0.861732 0.488653
vt 0.759553 0.488653
vt 0.258650 0.206204
vt 0.000000 0.203827
vt 0.076412 0.105997
vt 0.963911 0.161796
vt 0.861732 0.000000
vt 0.963911 0.000000
vt 0.861732 0.560049
vt 0.759553 0.560049
vt 0.519486 0.520480
vt 0.417307 0.927122
vt 0.417307 0.520480
vt 0.859782 0.957592
vt 0.757603 0.801919
vt 0.859782 0.801919
vt 0.861732 0.211404
vt 0.861732 0.161796
vt 0.706410 0.897821
vt 0.619715 1.000000
vt 0.619715 0.897821
vt 0.859782 0.560049
vt 0.759553 0.676439
vt 0.759553 0.560049
vt 0.208653 0.823832
vt 0.109532 0.928289
vt 0.114867 0.805470
vt 0.519486 0.626450
vt 0.619715 0.520480
vt 0.619715 0.626450
vt 0.859782 0.801919
vt 0.759553 0.801919
vt 0.960011 0.794995
vt 0.859782 0.667893
vt 0.960011 0.667893
vt 0.960011 0.560049
vt 0.960011 0.966832
vt 0.859782 0.794995
vt 0.960011 0.794995
vt 0.519486 0.910615
vt 0.619715 0.816463
vt 0.619715 0.910615
vt 0.519486 0.816463
vt 0.619715 0.897821
vt 0.719944 0.811682
vt 0.719944 0.897821
vt 0.619715 0.811682
vt 0.719944 0.628976
vt 0.619715 0.628976
vt 0.719944 0.520480
vt 0.961961 0.393841
vt 0.861732 0.559005
vt 0.861732 0.393841
vt 0.000000 0.931645
vt 0.000000 0.795659
vt 0.322367 0.921307
vt 0.417307 0.785969
vt 0.417307 0.931645
vt 0.208653 0.520480
vt 0.208653 0.666156
vt 0.113713 0.530818
vt 0.500903 0.206204
vt 0.759553 0.520480
vt 0.655349 0.520480
vt 0.208653 0.931645
vt 0.000000 0.520480
vt 0.000000 0.520480
vt 0.104204 0.520480
vt 0.323521 0.646655
vt 0.320391 0.784024
vt 0.208653 0.798022
vt 0.379776 0.105997
vt 0.379776 0.196023
vt 0.111737 0.668102
vt 0.000000 0.654103
vt 0.683141 0.105997
vt 0.759553 0.001320
vt 0.759553 0.203827
vt 0.379777 0.105997
vt 0.379776 0.196024
vt 0.000000 0.001320
vt 0.080737 0.000000
vt 0.417307 0.628294
vt 0.208653 0.931645
vt 0.417307 0.520480
vt 0.861732 0.393841
vt 0.861732 0.000000
vt 0.519486 0.927122
vt 0.757603 0.957592
vt 0.963911 0.211404
vt 0.706410 1.000000
vt 0.859782 0.676439
vt 0.519486 0.520480
vt 0.859782 0.794995
vt 0.859782 0.560049
vt 0.859782 0.966832
vt 0.619715 0.520480
vt 0.961961 0.559005
vt 0.678816 0.000000
vn 0.0000 -1.0000 -0.0000
vn 0.0000 1.0000 0.0000
vn -1.0000 -0.0000 0.0000
vn -0.0000 0.6474 0.7622
vn 0.0000 0.0000 -1.0000
vn 0.0000 -0.0000 1.0000
vn 0.0000 -0.6355 -0.7721
vn 0.0000 1.0000 -0.0092
vn 0.0000 -0.9999 -0.0163
vn -0.0000 0.0408 0.9992
vn 1.0000 0.0000 0.0000
vn 0.0000 -0.6368 -0.7711
vn 0.0000 -0.0434 0.9991
vn 0.0000 0.6045 0.7966
vn 0.0000 -0.5284 -0.8490
vn 0.0000 0.0144 -0.9999
vn 0.0000 0.5743 0.8187
usemtl Material.001
s 1
f 1/1/1 2/2/1 3/3/1
f 4/4/2 5/5/2 6/6/2
f 7/7/3 8/8/3 9/9/3
f 6/6/4 10/10/4 11/11/4
f 12/12/3 13/13/3 2/14/3
f 14/15/5 13/16/5 15/17/5
f 11/11/6 16/18/6 1/19/6
f 4/20/7 12/21/7 17/22/7
f 15/23/8 12/24/8 18/25/8
f 14/15/9 19/26/9 20/27/9
f 3/28/10 19/29/10 21/30/10
f 22/31/5 23/32/5 24/33/5
f 25/34/11 26/35/11 27/36/11
f 28/37/6 29/38/6 30/39/6
f 23/32/1 29/40/1 31/41/1
f 32/42/2 9/43/2 33/44/2
f 9/43/6 34/45/6 33/44/6
f 34/46/12 7/47/12 26/48/12
f 7/49/13 27/50/13 26/51/13
f 35/52/14 30/39/14 27/50/14
f 32/53/5 36/54/5 37/55/5
f 25/56/15 38/57/15 36/54/15
f 39/58/16 40/59/16 38/57/16
f 41/60/17 24/61/17 40/62/17
f 33/63/11 34/64/11 26/35/11
f 40/65/3 24/66/3 23/67/3
f 42/68/11 22/69/11 41/70/11
f 18/71/11 4/72/11 6/73/11
f 32/74/11 33/63/11 26/35/11
f 29/75/11 42/68/11 41/70/11
f 17/76/3 12/12/3 5/77/3
f 35/78/3 38/79/3 28/80/3
f 12/12/3 16/81/3 10/82/3
f 27/36/11 39/83/11 25/34/11
f 39/83/11 27/36/11 30/84/11
f 3/85/11 14/86/11 15/87/11
f 12/12/3 10/82/3 5/77/3
f 1/88/11 18/71/11 11/89/11
f 15/87/11 18/71/11 3/85/11
f 30/84/11 41/70/11 39/83/11
f 18/71/11 6/73/11 11/89/11
f 2/14/3 20/90/3 19/91/3
f 38/79/3 35/78/3 36/92/3
f 40/65/3 23/67/3 31/93/3
f 7/7/3 9/9/3 37/94/3
f 28/80/3 40/65/3 31/93/3
f 36/92/3 7/7/3 37/94/3
f 1/1/1 16/95/1 2/2/1
f 4/4/2 17/96/2 5/5/2
f 6/6/4 5/5/4 10/10/4
f 14/15/5 20/27/5 13/16/5
f 11/11/6 10/10/6 16/18/6
f 4/20/7 18/97/7 12/21/7
f 15/23/8 13/98/8 12/24/8
f 14/15/9 21/99/9 19/26/9
f 3/28/10 2/100/10 19/29/10
f 22/31/5 42/101/5 23/32/5
f 25/34/11 32/74/11 26/35/11
f 28/37/6 31/102/6 29/38/6
f 23/32/1 42/101/1 29/40/1
f 32/42/2 37/103/2 9/43/2
f 9/43/6 8/104/6 34/45/6
f 34/46/12 8/105/12 7/47/12
f 7/49/13 35/52/13 27/50/13
f 35/52/14 28/37/14 30/39/14
f 32/53/5 25/56/5 36/54/5
f 25/56/15 39/58/15 38/57/15
f 39/58/16 41/106/16 40/59/16
f 41/60/17 22/107/17 24/61/17
f 12/12/3 2/14/3 16/81/3
f 3/85/11 21/108/11 14/86/11
f 1/88/11 3/85/11 18/71/11
f 30/84/11 29/75/11 41/70/11
f 2/14/3 13/13/3 20/90/3
f 28/80/3 38/79/3 40/65/3
f 36/92/3 35/78/3 7/7/3
